<svg xmlns="http://www.w3.org/2000/svg" xmlns:xlink="http://www.w3.org/1999/xlink" viewBox="0,0,256,256" width="30px" height="30px" fill-rule="nonzero"><g fill="#ffffff" fill-rule="nonzero" stroke="none" stroke-width="1" stroke-linecap="butt" stroke-linejoin="miter" stroke-miterlimit="10" stroke-dasharray="" stroke-dashoffset="0" font-family="none" font-weight="none" font-size="none" text-anchor="none" style="mix-blend-mode: normal"><g transform="scale(8.53333,8.53333)"><path d="M24,4h-18c-1.1,0 -2,0.9 -2,2v18c0,1.1 0.9,2 2,2h18c1.1,0 2,-0.9 2,-2v-18c0,-1.1 -0.9,-2 -2,-2zM12.469,17.504h-1.575v-3.455l-1.328,1.554l-1.328,-1.554v3.455h-1.576v-5.92h1.592l1.311,1.864l1.311,-1.864h1.592v5.92zM16.8,14.294v-1.251h1.699v4.46h-1.699v-1.99h-1.845c0,0 0.021,1.02 0.667,1.99c-0.969,0.689 -1.24,0.876 -1.24,0.876c0,0 -1.021,-1.814 -1.021,-3.67c0,-1.615 1.157,-3.127 3.2,-3.127c1.021,0 1.814,0 1.814,0l0.406,1.262c0,0 -1.303,0 -2.22,0c-0.917,0 -1.24,1.084 -1.303,1.449c0.354,0.012 1.542,0.001 1.542,0.001zM23.071,17.504h-3.328v-5.92h1.517v4.603h2.159z"></path></g></g></svg>